<mxfile host="app.diagrams.net" modified="2020-09-20T13:39:39.497Z" agent="5.0 (Macintosh; Intel Mac OS X 10_15_6) AppleWebKit/537.36 (KHTML, like Gecko) Chrome/85.0.4183.102 Safari/537.36" etag="d5pmQhPvHQYhFbVZ70NW" version="13.7.3" type="github">
  <diagram id="kM95TA3fYAMfRQIIL85d" name="Page-1">
    <mxGraphModel dx="1158" dy="655" grid="1" gridSize="10" guides="1" tooltips="1" connect="1" arrows="1" fold="1" page="1" pageScale="1" pageWidth="827" pageHeight="1169" math="0" shadow="0">
      <root>
        <mxCell id="0" />
        <mxCell id="1" parent="0" />
        <mxCell id="eAjyilriZBMniS1TLyXd-2" style="edgeStyle=orthogonalEdgeStyle;rounded=0;orthogonalLoop=1;jettySize=auto;html=1;" edge="1" parent="1" source="eAjyilriZBMniS1TLyXd-1">
          <mxGeometry relative="1" as="geometry">
            <mxPoint x="260" y="160" as="targetPoint" />
          </mxGeometry>
        </mxCell>
        <mxCell id="eAjyilriZBMniS1TLyXd-11" style="edgeStyle=orthogonalEdgeStyle;rounded=0;orthogonalLoop=1;jettySize=auto;html=1;" edge="1" parent="1" source="eAjyilriZBMniS1TLyXd-1">
          <mxGeometry relative="1" as="geometry">
            <mxPoint x="110" y="90" as="targetPoint" />
          </mxGeometry>
        </mxCell>
        <mxCell id="eAjyilriZBMniS1TLyXd-1" value="DATA" style="rounded=1;whiteSpace=wrap;html=1;fillColor=#ffe6cc;strokeColor=#d79b00;" vertex="1" parent="1">
          <mxGeometry x="50" y="130" width="120" height="60" as="geometry" />
        </mxCell>
        <mxCell id="eAjyilriZBMniS1TLyXd-5" style="edgeStyle=orthogonalEdgeStyle;rounded=0;orthogonalLoop=1;jettySize=auto;html=1;" edge="1" parent="1" source="eAjyilriZBMniS1TLyXd-3" target="eAjyilriZBMniS1TLyXd-4">
          <mxGeometry relative="1" as="geometry" />
        </mxCell>
        <mxCell id="eAjyilriZBMniS1TLyXd-3" value="&lt;span&gt;DATA&lt;/span&gt;" style="rounded=1;whiteSpace=wrap;html=1;fillColor=#ffe6cc;strokeColor=#d79b00;" vertex="1" parent="1">
          <mxGeometry x="260" y="130" width="120" height="60" as="geometry" />
        </mxCell>
        <mxCell id="eAjyilriZBMniS1TLyXd-8" style="edgeStyle=orthogonalEdgeStyle;rounded=0;orthogonalLoop=1;jettySize=auto;html=1;" edge="1" parent="1" source="eAjyilriZBMniS1TLyXd-4">
          <mxGeometry relative="1" as="geometry">
            <mxPoint x="670" y="160" as="targetPoint" />
          </mxGeometry>
        </mxCell>
        <mxCell id="eAjyilriZBMniS1TLyXd-4" value="&lt;span&gt;DATA&lt;/span&gt;" style="rounded=1;whiteSpace=wrap;html=1;fillColor=#ffe6cc;strokeColor=#d79b00;" vertex="1" parent="1">
          <mxGeometry x="480" y="130" width="120" height="60" as="geometry" />
        </mxCell>
        <mxCell id="eAjyilriZBMniS1TLyXd-6" value="next" style="text;html=1;strokeColor=#82b366;fillColor=#d5e8d4;align=center;verticalAlign=middle;whiteSpace=wrap;rounded=0;" vertex="1" parent="1">
          <mxGeometry x="190" y="130" width="40" height="20" as="geometry" />
        </mxCell>
        <mxCell id="eAjyilriZBMniS1TLyXd-7" value="next" style="text;html=1;strokeColor=#82b366;fillColor=#d5e8d4;align=center;verticalAlign=middle;whiteSpace=wrap;rounded=0;" vertex="1" parent="1">
          <mxGeometry x="413.5" y="130" width="40" height="20" as="geometry" />
        </mxCell>
        <mxCell id="eAjyilriZBMniS1TLyXd-9" value="null" style="text;html=1;strokeColor=none;fillColor=none;align=center;verticalAlign=middle;whiteSpace=wrap;rounded=0;" vertex="1" parent="1">
          <mxGeometry x="690" y="150" width="40" height="20" as="geometry" />
        </mxCell>
        <mxCell id="eAjyilriZBMniS1TLyXd-10" value="next" style="text;html=1;strokeColor=#82b366;fillColor=#d5e8d4;align=center;verticalAlign=middle;whiteSpace=wrap;rounded=0;" vertex="1" parent="1">
          <mxGeometry x="620" y="130" width="40" height="20" as="geometry" />
        </mxCell>
        <mxCell id="eAjyilriZBMniS1TLyXd-12" value="header" style="text;html=1;strokeColor=#6c8ebf;fillColor=#dae8fc;align=center;verticalAlign=middle;whiteSpace=wrap;rounded=0;" vertex="1" parent="1">
          <mxGeometry x="90" y="70" width="40" height="20" as="geometry" />
        </mxCell>
        <mxCell id="eAjyilriZBMniS1TLyXd-13" value="&lt;font style=&quot;font-size: 20px&quot;&gt;null&lt;/font&gt;" style="ellipse;whiteSpace=wrap;html=1;fillColor=#f8cecc;strokeColor=#b85450;" vertex="1" parent="1">
          <mxGeometry x="670" y="120" width="120" height="80" as="geometry" />
        </mxCell>
      </root>
    </mxGraphModel>
  </diagram>
</mxfile>
